<svg xmlns="http://www.w3.org/2000/svg" viewBox="0 0 128 128" role="img" aria-label="Forest Quest Kid mascot">
  <path d="M25 49 64 12l39 37-22-4v28H47V45Z" fill="#49a66b" stroke="#17211f" stroke-width="5" stroke-linejoin="round"/>
  <circle cx="64" cy="65" r="31" fill="#f5c99c" stroke="#17211f" stroke-width="5"/>
  <path d="M37 63c10-20 34-28 55-8-2-21-14-34-31-34-15 0-25 10-24 42Z" fill="#68b85f" stroke="#17211f" stroke-width="5" stroke-linejoin="round"/>
  <circle cx="52" cy="70" r="5" fill="#17211f"/>
  <circle cx="76" cy="70" r="5" fill="#17211f"/>
  <path d="M56 84q8 5 16 0" fill="none" stroke="#17211f" stroke-width="5" stroke-linecap="round"/>
  <path d="M93 69 116 55l-11 27 12 12-24-2Z" fill="#5fd0b4" stroke="#17211f" stroke-width="4" stroke-linejoin="round"/>
  <path d="M94 91 79 110" stroke="#17211f" stroke-width="5" stroke-linecap="round"/>
</svg>
