<svg xmlns="http://www.w3.org/2000/svg" viewBox="0 0 128 128" role="img" aria-label="Rose Crown mascot">
  <path d="M32 45 42 19l15 21 10-25 11 25 15-21 10 26Z" fill="#ffd85a" stroke="#17211f" stroke-width="5" stroke-linejoin="round"/>
  <circle cx="64" cy="66" r="38" fill="#ffd0b0" stroke="#17211f" stroke-width="5"/>
  <path d="M29 76c-11-24 0-48 24-57 21 3 39 16 47 37-16-7-31-8-45-3-10 4-18 11-26 23Z" fill="#f2a65d" stroke="#17211f" stroke-width="5" stroke-linejoin="round"/>
  <circle cx="52" cy="67" r="5" fill="#17211f"/>
  <circle cx="78" cy="67" r="5" fill="#17211f"/>
  <path d="M57 83q8 6 16 0" fill="none" stroke="#17211f" stroke-width="5" stroke-linecap="round"/>
  <path d="M31 96 15 107M97 96l16 11" stroke="#f29ac1" stroke-width="11" stroke-linecap="round"/>
  <path d="M42 103h44l-8 18H50Z" fill="#f29ac1" stroke="#17211f" stroke-width="5" stroke-linejoin="round"/>
  <circle cx="64" cy="35" r="5" fill="#60c9d8"/>
</svg>
