<svg xmlns="http://www.w3.org/2000/svg" viewBox="0 0 128 128" role="img" aria-label="Sprout Buddy mascot">
  <path d="M64 34c0-14 6-23 20-26 3 14-4 25-20 26Zm0 0c-12-4-20-12-20-25 15 1 22 10 20 25Z" fill="#62c66c" stroke="#17211f" stroke-width="5" stroke-linejoin="round"/>
  <path d="M57 34h14v32H57Z" fill="#62c66c" stroke="#17211f" stroke-width="5"/>
  <ellipse cx="64" cy="78" rx="28" ry="35" fill="#f05c4f" stroke="#17211f" stroke-width="5"/>
  <circle cx="55" cy="73" r="5" fill="#17211f"/>
  <circle cx="73" cy="73" r="5" fill="#17211f"/>
  <path d="M58 87q6 4 12 0" fill="none" stroke="#17211f" stroke-width="4" stroke-linecap="round"/>
  <path d="M43 103 30 117M85 103l13 14" stroke="#17211f" stroke-width="8" stroke-linecap="round"/>
  <path d="M36 76 19 68M92 76l17-8" stroke="#17211f" stroke-width="6" stroke-linecap="round"/>
</svg>
