<svg xmlns="http://www.w3.org/2000/svg" viewBox="0 0 128 128" role="img" aria-label="Sun Crown mascot">
  <path d="M28 47 39 20l17 20 8-27 13 26 18-19 6 29Z" fill="#ffd348" stroke="#17211f" stroke-width="5" stroke-linejoin="round"/>
  <circle cx="64" cy="66" r="38" fill="#f7c18a" stroke="#17211f" stroke-width="5"/>
  <path d="M31 70c-6-22 5-43 28-50 24 2 39 16 42 42-18-12-42-15-70 8Z" fill="#c96b34" stroke="#17211f" stroke-width="5" stroke-linejoin="round"/>
  <circle cx="52" cy="68" r="5" fill="#17211f"/>
  <circle cx="78" cy="68" r="5" fill="#17211f"/>
  <path d="M57 84q8 5 16 0" fill="none" stroke="#17211f" stroke-width="5" stroke-linecap="round"/>
  <path d="M33 98 17 111M95 98l16 13" stroke="#f2a23a" stroke-width="11" stroke-linecap="round"/>
  <path d="M42 103h44l-9 18H51Z" fill="#f4d44a" stroke="#17211f" stroke-width="5" stroke-linejoin="round"/>
  <circle cx="82" cy="35" r="5" fill="#6ccad8"/>
</svg>
